<svg width="17" height="16" viewBox="0 0 17 16" xmlns="http://www.w3.org/2000/svg">
<path d="M16.7437 9.8088V16H13.1542V10.2237C13.1542 8.77337 12.6359 7.7829 11.3363 7.7829C10.3445 7.7829 9.75526 8.44972 9.49507 9.0954C9.40057 9.32615 9.37621 9.64658 9.37621 9.97022V15.9997H5.78645C5.78645 15.9997 5.83463 6.21663 5.78645 5.20395H9.37648V6.73381C9.36925 6.74586 9.35908 6.75764 9.35265 6.76915H9.37648V6.73381C9.85351 5.9998 10.7042 4.95044 12.6115 4.95044C14.9731 4.95044 16.7437 6.49342 16.7437 9.8088ZM2.03125 0C0.803346 0 0 0.806023 0 1.86502C0 2.90152 0.780057 3.73083 1.98414 3.73083H2.00743C3.25943 3.73083 4.03788 2.90152 4.03788 1.86502C4.01405 0.806023 3.25943 0 2.03125 0ZM0.213351 16H3.80177V5.20395H0.213351V16Z" />
</svg>
